<?xml version="1.0" encoding="utf-8"?>
<!-- Generator: Adobe Illustrator 22.1.0, SVG Export Plug-In . SVG Version: 6.00 Build 0)  -->
<svg version="1.1" id="Camada_1" xmlns="http://www.w3.org/2000/svg" xmlns:xlink="http://www.w3.org/1999/xlink" x="0px" y="0px"
	 viewBox="0 0 255.2 300.1" style="enable-background:new 0 0 255.2 300.1;" xml:space="preserve">
<style type="text/css">
	.st0{fill:#FFFFFF;}
</style>
<path class="st0" d="M247.8,69.6L135.3,2.2c-4.8-2.9-10.8-2.9-15.5,0L7.3,69.6C2.7,72.3,0,77.3,0,82.6v134.9c0,5.3,2.8,10.2,7.3,13
	l112.5,67.4c2.4,1.4,5.1,2.2,7.8,2.2c2.7,0,5.4-0.7,7.8-2.2l112.5-67.4c4.6-2.7,7.3-7.7,7.3-13V82.6
	C255.2,77.2,252.4,72.3,247.8,69.6z M221.2,199.5c0,3.9-2,7.5-5.4,9.5l-82.5,49.5c-1.8,1.1-3.7,1.6-5.7,1.6s-3.9-0.5-5.7-1.6
	L39.4,209c-3.3-2-5.4-5.6-5.4-9.5v-98.9c0-3.9,2-7.5,5.4-9.5l82.5-49.5c3.5-2.1,7.9-2.1,11.4,0l82.5,49.5c3.3,2,5.4,5.6,5.4,9.5
	V199.5z"/>
</svg>
